<?xml version="1.0" encoding="UTF-8"?>
<svg xmlns="http://www.w3.org/2000/svg" xmlns:xlink="http://www.w3.org/1999/xlink" width="2000" height="2000" viewBox="0 0 2000 2000">
<path fill-rule="evenodd" fill="rgb(95.701599%, 96.875%, 98.046875%)" fill-opacity="1" d="M 0 0.078125 L 1999.921875 0.078125 L 1999.921875 2000 L 0 2000 L 0 0.078125 "/>
<path fill-rule="evenodd" fill="rgb(95.701599%, 96.875%, 98.046875%)" fill-opacity="1" d="M 1908.238281 1915.15625 L 1889.179688 1915.15625 C 1888.300781 1915.15625 1887.589844 1915.871094 1887.589844 1916.746094 L 1887.589844 1935.800781 C 1887.589844 1936.679688 1888.300781 1937.394531 1889.179688 1937.394531 L 1908.238281 1937.394531 C 1909.109375 1937.394531 1909.828125 1936.679688 1909.828125 1935.800781 L 1909.828125 1916.746094 C 1909.828125 1915.871094 1909.109375 1915.15625 1908.238281 1915.15625 "/>
<path fill-rule="evenodd" fill="rgb(95.701599%, 96.875%, 98.046875%)" fill-opacity="1" d="M 1865.28125 1916.171875 L 1847.089844 1916.171875 C 1846.261719 1916.171875 1845.578125 1916.855469 1845.578125 1917.691406 L 1845.578125 1935.875 C 1845.578125 1936.710938 1846.261719 1937.394531 1847.089844 1937.394531 L 1865.28125 1937.394531 C 1866.109375 1937.394531 1866.800781 1936.710938 1866.800781 1935.875 L 1866.800781 1917.691406 C 1866.800781 1916.855469 1866.109375 1916.171875 1865.28125 1916.171875 "/>
<path fill-rule="evenodd" fill="rgb(95.701599%, 96.875%, 98.046875%)" fill-opacity="1" d="M 1822.320312 1917.1875 L 1805.011719 1917.1875 C 1804.210938 1917.1875 1803.558594 1917.839844 1803.558594 1918.636719 L 1803.558594 1935.949219 C 1803.558594 1936.742188 1804.210938 1937.394531 1805.011719 1937.394531 L 1822.320312 1937.394531 C 1823.121094 1937.394531 1823.769531 1936.742188 1823.769531 1935.949219 L 1823.769531 1918.636719 C 1823.769531 1917.839844 1823.121094 1917.1875 1822.320312 1917.1875 "/>
<path fill-rule="evenodd" fill="rgb(95.701599%, 96.875%, 98.046875%)" fill-opacity="1" d="M 1779.371094 1918.207031 L 1762.929688 1918.207031 C 1762.171875 1918.207031 1761.550781 1918.824219 1761.550781 1919.582031 L 1761.550781 1936.019531 C 1761.550781 1936.777344 1762.171875 1937.394531 1762.929688 1937.394531 L 1779.371094 1937.394531 C 1780.121094 1937.394531 1780.738281 1936.777344 1780.738281 1936.019531 L 1780.738281 1919.582031 C 1780.738281 1918.824219 1780.121094 1918.207031 1779.371094 1918.207031 "/>
<path fill-rule="evenodd" fill="rgb(95.701599%, 96.875%, 98.046875%)" fill-opacity="1" d="M 1736.410156 1919.222656 L 1720.839844 1919.222656 C 1720.128906 1919.222656 1719.539062 1919.808594 1719.539062 1920.523438 L 1719.539062 1936.09375 C 1719.539062 1936.808594 1720.128906 1937.394531 1720.839844 1937.394531 L 1736.410156 1937.394531 C 1737.128906 1937.394531 1737.710938 1936.808594 1737.710938 1936.09375 L 1737.710938 1920.523438 C 1737.710938 1919.808594 1737.128906 1919.222656 1736.410156 1919.222656 "/>
<path fill-rule="evenodd" fill="rgb(95.701599%, 96.875%, 98.046875%)" fill-opacity="1" d="M 1693.460938 1920.238281 L 1678.761719 1920.238281 C 1678.078125 1920.238281 1677.53125 1920.792969 1677.53125 1921.46875 L 1677.53125 1936.167969 C 1677.53125 1936.84375 1678.078125 1937.394531 1678.761719 1937.394531 L 1693.460938 1937.394531 C 1694.128906 1937.394531 1694.679688 1936.84375 1694.679688 1936.167969 L 1694.679688 1921.46875 C 1694.679688 1920.792969 1694.128906 1920.238281 1693.460938 1920.238281 "/>
<path fill-rule="evenodd" fill="rgb(95.701599%, 96.875%, 98.046875%)" fill-opacity="1" d="M 1650.5 1921.257812 L 1636.671875 1921.257812 C 1636.039062 1921.257812 1635.519531 1921.777344 1635.519531 1922.414062 L 1635.519531 1936.238281 C 1635.519531 1936.875 1636.039062 1937.394531 1636.671875 1937.394531 L 1650.5 1937.394531 C 1651.140625 1937.394531 1651.648438 1936.875 1651.648438 1936.238281 L 1651.648438 1922.414062 C 1651.648438 1921.777344 1651.140625 1921.257812 1650.5 1921.257812 "/>
<path fill-rule="evenodd" fill="rgb(95.701599%, 96.875%, 98.046875%)" fill-opacity="1" d="M 1607.539062 1922.273438 L 1594.589844 1922.273438 C 1593.988281 1922.273438 1593.511719 1922.761719 1593.511719 1923.355469 L 1593.511719 1936.3125 C 1593.511719 1936.90625 1593.988281 1937.394531 1594.589844 1937.394531 L 1607.539062 1937.394531 C 1608.140625 1937.394531 1608.628906 1936.90625 1608.628906 1936.3125 L 1608.628906 1923.355469 C 1608.628906 1922.761719 1608.140625 1922.273438 1607.539062 1922.273438 "/>
<path fill-rule="evenodd" fill="rgb(95.701599%, 96.875%, 98.046875%)" fill-opacity="1" d="M 1564.589844 1923.292969 L 1552.5 1923.292969 C 1551.949219 1923.292969 1551.488281 1923.746094 1551.488281 1924.300781 L 1551.488281 1936.386719 C 1551.488281 1936.941406 1551.949219 1937.394531 1552.5 1937.394531 L 1564.589844 1937.394531 C 1565.140625 1937.394531 1565.601562 1936.941406 1565.601562 1936.386719 L 1565.601562 1924.300781 C 1565.601562 1923.746094 1565.140625 1923.292969 1564.589844 1923.292969 "/>
<path fill="none" stroke-width="400.001" stroke-linecap="round" stroke-linejoin="round" stroke="rgb(24.31488%, 27.050781%, 30.589294%)" stroke-opacity="1" stroke-miterlimit="2.61313" d="M 5916.289062 15373.203125 L 14082.890625 15373.203125 C 14215.585938 15373.203125 14323.085938 15265.585938 14323.085938 15133.007812 L 14323.085938 12249.101562 C 15573.007812 12249.101562 15573.007812 11484.492188 14323.085938 11484.492188 L 14323.085938 5420.546875 L 14903.59375 5420.546875 L 14903.59375 4626.015625 L 5095.585938 4626.015625 L 5095.585938 5420.546875 L 5676.054688 5420.546875 L 5676.054688 11484.492188 C 4426.171875 11484.492188 4426.171875 12249.101562 5676.054688 12249.101562 L 5676.054688 15133.007812 C 5676.054688 15265.585938 5783.632812 15373.203125 5916.289062 15373.203125 Z M 5916.289062 15373.203125 " transform="matrix(0.1, 0, 0, -0.1, 0, 2000)"/>
<path fill="none" stroke-width="400.002" stroke-linecap="round" stroke-linejoin="round" stroke="rgb(24.31488%, 27.050781%, 30.589294%)" stroke-opacity="1" stroke-miterlimit="2.61313" d="M 11107.304688 5824.921875 L 13681.914062 5824.921875 L 13681.914062 10767.695312 L 11107.304688 10767.695312 Z M 11107.304688 5824.921875 " transform="matrix(0.1, 0, 0, -0.1, 0, 2000)"/>
<path fill="none" stroke-width="400.002" stroke-linecap="round" stroke-linejoin="round" stroke="rgb(24.31488%, 27.050781%, 30.589294%)" stroke-opacity="1" stroke-miterlimit="2.61313" d="M 6428.90625 10749.101562 L 10474.6875 10749.101562 L 10474.6875 8003.085938 L 6428.90625 8003.085938 Z M 6428.90625 10749.101562 " transform="matrix(0.1, 0, 0, -0.1, 0, 2000)"/>
<path fill-rule="nonzero" fill="rgb(24.31488%, 27.050781%, 30.589294%)" fill-opacity="1" d="M 1258.601562 631.328125 L 1229.53125 631.328125 L 1229.53125 600.761719 L 1258.601562 600.761719 C 1261.921875 600.761719 1264.910156 601.371094 1267.578125 602.578125 C 1270.25 603.761719 1272.351562 605.5 1273.921875 607.78125 C 1275.53125 610.058594 1276.308594 612.878906 1276.339844 616.148438 C 1276.308594 619.359375 1275.53125 622.101562 1273.921875 624.351562 C 1272.351562 626.628906 1270.25 628.339844 1267.578125 629.550781 C 1264.910156 630.71875 1261.890625 631.328125 1258.601562 631.328125 Z M 1229.53125 711.28125 L 1229.53125 663.390625 L 1264.160156 663.390625 C 1272.179688 663.359375 1279.269531 662.070312 1285.429688 659.621094 C 1291.589844 657.160156 1296.789062 653.738281 1301 649.390625 C 1305.199219 645.050781 1308.371094 640.019531 1310.511719 634.359375 C 1312.679688 628.691406 1313.75 622.601562 1313.75 616.148438 C 1313.75 609.628906 1312.679688 603.539062 1310.511719 597.808594 C 1308.371094 592.109375 1305.199219 587.078125 1301 582.738281 C 1296.789062 578.351562 1291.589844 574.929688 1285.429688 572.46875 C 1279.269531 570.019531 1272.179688 568.730469 1264.160156 568.699219 L 1192.761719 568.699219 L 1192.761719 711.28125 Z M 1083.179688 681.351562 C 1077.300781 681.320312 1071.960938 680.238281 1067.191406 678.140625 C 1062.410156 676.050781 1058.308594 673.121094 1054.929688 669.378906 C 1051.511719 665.640625 1048.871094 661.261719 1047.058594 656.269531 C 1045.199219 651.28125 1044.308594 645.898438 1044.28125 640.089844 C 1044.308594 634.21875 1045.199219 628.800781 1047.058594 623.808594 C 1048.871094 618.828125 1051.511719 614.441406 1054.929688 610.738281 C 1058.308594 607 1062.410156 604.078125 1067.191406 602.011719 C 1071.960938 599.910156 1077.300781 598.871094 1083.179688 598.839844 C 1089.089844 598.871094 1094.398438 599.910156 1099.140625 602.011719 C 1103.921875 604.078125 1107.980469 607 1111.359375 610.738281 C 1114.75 614.441406 1117.351562 618.828125 1119.128906 623.808594 C 1120.949219 628.800781 1121.871094 634.21875 1121.871094 640.089844 C 1121.871094 645.898438 1120.949219 651.28125 1119.128906 656.269531 C 1117.351562 661.261719 1114.738281 665.640625 1111.359375 669.378906 C 1107.980469 673.121094 1103.921875 676.039062 1099.140625 678.140625 C 1094.398438 680.25 1089.089844 681.320312 1083.179688 681.351562 Z M 1083.179688 713.839844 C 1094.148438 713.808594 1104.238281 711.988281 1113.460938 708.429688 C 1122.691406 704.871094 1130.738281 699.808594 1137.578125 693.25 C 1144.421875 686.699219 1149.730469 678.929688 1153.511719 669.910156 C 1157.320312 660.941406 1159.238281 651 1159.28125 640.089844 C 1159.238281 629.191406 1157.320312 619.25 1153.511719 610.28125 C 1149.730469 601.261719 1144.421875 593.488281 1137.578125 586.941406 C 1130.738281 580.390625 1122.691406 575.320312 1113.460938 571.761719 C 1104.238281 568.199219 1094.148438 566.378906 1083.179688 566.351562 C 1072.210938 566.378906 1062.121094 568.199219 1052.859375 571.761719 C 1043.609375 575.320312 1035.539062 580.390625 1028.671875 586.941406 C 1021.800781 593.488281 1016.449219 601.261719 1012.679688 610.28125 C 1008.859375 619.25 1006.941406 629.191406 1006.871094 640.089844 C 1006.941406 651 1008.859375 660.941406 1012.679688 669.910156 C 1016.449219 678.929688 1021.800781 686.699219 1028.671875 693.25 C 1035.539062 699.800781 1043.609375 704.871094 1052.859375 708.429688 C 1062.121094 711.988281 1072.210938 713.808594 1083.179688 713.839844 Z M 973.597656 711.28125 L 973.597656 568.699219 L 936.832031 568.699219 L 936.832031 622.140625 L 877.621094 622.140625 L 877.621094 568.699219 L 840.851562 568.699219 L 840.851562 711.28125 L 877.621094 711.28125 L 877.621094 654.199219 L 936.832031 654.199219 L 936.832031 711.28125 Z M 749.441406 713.839844 C 762.230469 713.769531 773.027344 711.78125 781.859375 707.859375 C 790.695312 703.898438 797.394531 698.378906 801.953125 691.261719 C 806.550781 684.128906 808.832031 675.789062 808.867188 666.171875 C 808.832031 659.578125 807.65625 653.921875 805.410156 649.210938 C 803.164062 644.511719 800.101562 640.519531 796.289062 637.320312 C 792.441406 634.109375 788.132812 631.46875 783.355469 629.371094 C 778.582031 627.269531 773.664062 625.558594 768.574219 624.210938 C 763.476562 622.890625 758.5625 621.710938 753.785156 620.75 C 749.011719 619.75 744.703125 618.75 740.855469 617.761719 C 737.042969 616.800781 734.015625 615.578125 731.734375 614.191406 C 729.488281 612.808594 728.3125 611.019531 728.277344 608.890625 C 728.242188 605.75 729.488281 603.328125 731.949219 601.648438 C 734.441406 599.941406 738.359375 599.050781 743.671875 599.050781 C 748.40625 599.050781 753.21875 599.589844 758.097656 600.691406 C 762.976562 601.789062 767.71875 603.429688 772.347656 605.679688 C 777.015625 607.890625 781.328125 610.671875 785.351562 614.019531 L 805.445312 586.441406 C 797.820312 579.921875 789.128906 574.96875 779.367188 571.621094 C 769.605469 568.269531 758.988281 566.558594 747.515625 566.558594 C 738.359375 566.601562 730.273438 567.839844 723.253906 570.269531 C 716.199219 572.691406 710.285156 576.039062 705.476562 580.238281 C 700.667969 584.449219 697.03125 589.289062 694.574219 594.710938 C 692.117188 600.121094 690.871094 605.820312 690.871094 611.878906 C 690.941406 618.71875 692.082031 624.53125 694.324219 629.371094 C 696.605469 634.21875 699.636719 638.238281 703.480469 641.480469 C 707.292969 644.730469 711.605469 647.398438 716.378906 649.460938 C 721.152344 651.53125 726.070312 653.210938 731.164062 654.488281 C 736.257812 655.808594 741.175781 656.910156 745.949219 657.839844 C 750.722656 658.761719 755.035156 659.730469 758.882812 660.71875 C 762.695312 661.71875 765.757812 662.929688 768.003906 664.390625 C 770.246094 665.820312 771.421875 667.710938 771.457031 670.019531 C 771.457031 672.371094 770.636719 674.398438 769 676.078125 C 767.394531 677.789062 765.078125 679.070312 762.089844 680 C 759.09375 680.890625 755.535156 681.351562 751.363281 681.351562 C 744.808594 681.320312 738.683594 680.460938 733.050781 678.75 C 727.386719 677.078125 722.257812 674.800781 717.660156 671.980469 C 713.066406 669.128906 709.039062 666 705.621094 662.539062 L 686.167969 691.179688 C 690.941406 695.710938 696.390625 699.660156 702.519531 703.050781 C 708.683594 706.429688 715.632812 709.070312 723.398438 710.960938 C 731.164062 712.839844 739.855469 713.808594 749.441406 713.839844 "/>
<path fill="none" stroke-width="400.001" stroke-linecap="round" stroke-linejoin="round" stroke="rgb(24.31488%, 27.050781%, 30.589294%)" stroke-opacity="1" stroke-miterlimit="2.61313" d="M 11107.304688 10844.296875 L 13681.914062 10844.296875 C 13724.296875 10844.296875 13758.59375 10810 13758.59375 10767.695312 L 13758.59375 5824.921875 C 13758.59375 5782.578125 13724.296875 5748.28125 13681.914062 5748.28125 L 11107.304688 5748.28125 C 11065 5748.28125 11030.703125 5782.578125 11030.703125 5824.921875 L 11030.703125 10767.695312 C 11030.703125 10810 11065 10844.296875 11107.304688 10844.296875 Z M 11681.601562 8740 C 11681.601562 8810.625 11732.695312 8867.851562 11795.703125 8867.851562 C 11858.789062 8867.851562 11909.882812 8810.625 11909.882812 8740 L 11909.882812 7852.578125 C 11909.882812 7781.953125 11858.789062 7724.726562 11795.703125 7724.726562 C 11732.695312 7724.726562 11681.601562 7781.953125 11681.601562 7852.578125 Z M 6352.265625 7917.265625 L 6352.265625 10834.882812 L 10551.289062 10834.882812 L 10551.289062 7917.265625 Z M 8375.195312 8070.546875 L 8375.195312 9299.453125 L 6505.546875 9299.453125 L 6505.546875 8070.546875 Z M 8375.195312 9452.695312 L 8375.195312 10681.601562 L 6505.546875 10681.601562 L 6505.546875 9452.695312 Z M 8528.4375 10681.601562 L 8528.4375 9452.695312 L 10398.085938 9452.695312 L 10398.085938 10681.601562 Z M 8528.4375 9299.453125 L 8528.4375 8070.546875 L 10398.085938 8070.546875 L 10398.085938 9299.453125 Z M 13605.3125 10691.015625 L 11183.984375 10691.015625 L 11183.984375 5901.523438 L 13605.3125 5901.523438 Z M 13605.3125 10691.015625 " transform="matrix(0.1, 0, 0, -0.1, 0, 2000)"/>
</svg>
